<?xml version="1.0" standalone="no"?>
<!DOCTYPE svg PUBLIC "-//W3C//DTD SVG 20010904//EN"
 "http://www.w3.org/TR/2001/REC-SVG-20010904/DTD/svg10.dtd">
<svg version="1.0" xmlns="http://www.w3.org/2000/svg"
 width="1280.000000pt" height="740.000000pt" viewBox="0 0 1280.000000 740.000000"
 preserveAspectRatio="xMidYMid meet">
<g transform="translate(0.000000,740.000000) scale(0.100000,-0.100000)"
fill="#000000" stroke="none">
<path d="M3217 6261 c-1742 -621 -3170 -1131 -3174 -1134 -3 -4 0 -9 8 -12 8
-2 547 -194 1198 -425 651 -232 1192 -425 1203 -431 17 -9 18 -54 18 -1262 0
-979 3 -1257 13 -1277 33 -64 252 -209 532 -351 585 -296 1335 -495 2210 -588
1138 -121 2419 -57 3369 169 70 17 132 28 137 24 5 -3 9 -200 9 -470 0 -255 3
-464 8 -464 4 1 88 109 186 241 99 132 185 239 192 237 7 -2 83 -63 168 -135
85 -73 157 -133 160 -133 3 0 7 218 8 485 l3 485 143 64 c288 130 541 284 680
413 l42 40 0 1256 c0 1212 1 1257 18 1266 11 6 552 199 1203 431 651 231 1191
423 1199 426 13 5 13 6 0 14 -24 13 -6322 2252 -6345 2256 -11 1 -1446 -505
-3188 -1125z"/>
</g>
</svg>
